<svg width="700" height="518" viewBox="0 0 700 518" fill="none" xmlns="http://www.w3.org/2000/svg">
<rect y="4.66537" width="377.422" height="68.5047" rx="6" fill="#D43279"/>
<path d="M312.663 508.661L312.663 4.66879H382.662L382.662 508.661H312.663Z" fill="#D43279"/>
<rect x="155.815" y="517.099" width="377.422" height="68.5047" rx="6" transform="rotate(-90.5 155.815 517.099)" fill="#D43279"/>
<path d="M472.67 508.661C469.356 508.661 466.67 505.975 466.67 502.661L466.67 130.667H526.003C529.316 130.667 532.003 133.353 532.003 136.667L532.003 502.661C532.003 505.975 529.316 508.661 526.003 508.661H472.67Z" fill="#D43279"/>
<path d="M0 145.092C0 141.779 2.68629 139.092 6 139.092L215.025 139.092C218.338 139.092 221.025 141.779 221.025 145.092V201.597C221.025 204.911 218.338 207.597 215.025 207.597H6.00001C2.6863 207.597 0 204.911 0 201.597V145.092Z" fill="#D43279"/>
<path d="M466.67 136.666C466.67 133.352 469.356 130.666 472.67 130.666L694 130.666C697.314 130.666 700 133.352 700 136.666V194.665C700 197.979 697.314 200.665 694 200.665H472.67C469.356 200.665 466.67 197.979 466.67 194.665V136.666Z" fill="#D43279"/>
<path d="M461.988 6C461.988 2.6863 464.674 9.92528e-08 467.988 2.21687e-07L677.013 7.9447e-06C680.326 8.06714e-06 683.013 2.6863 683.013 6.00001V62.5047C683.013 65.8184 680.326 68.5047 677.013 68.5047H467.988C464.674 68.5047 461.988 65.8184 461.988 62.5047V6Z" fill="#D43279"/>
<rect y="4.66537" width="69.999" height="200.664" rx="6" fill="#D43279"/>
<rect x="629.983" width="69.7973" height="196.466" rx="6" fill="#D43279"/>
<rect x="312.663" y="508.661" width="69.999" height="219.33" transform="rotate(-90 312.663 508.661)" fill="#D43279"/>
</svg>
