<svg width="150" height="111" viewBox="0 0 150 111" fill="none" xmlns="http://www.w3.org/2000/svg">
<rect y="1" width="80.8774" height="14.6798" rx="6" fill="#200C0C"/>
<path d="M67 109L67 0.999997H82L82 109H67Z" fill="#200C0C"/>
<rect x="33.3896" y="110.808" width="80.8774" height="14.6798" rx="6" transform="rotate(-90.5 33.3896 110.808)" fill="#200C0C"/>
<path d="M106 109C102.686 109 100 106.314 100 103L100 28H108C111.314 28 114 30.6863 114 34L114 103C114 106.314 111.314 109 108 109H106Z" fill="#200C0C"/>
<path d="M0 35.8058C0 32.4921 2.68629 29.8058 6 29.8058L41.3631 29.8058C44.6768 29.8058 47.3631 32.4921 47.3631 35.8058V38.4856C47.3631 41.7993 44.6768 44.4856 41.3631 44.4856H6.00001C2.6863 44.4856 0 41.7993 0 38.4856V35.8058Z" fill="#200C0C"/>
<path d="M100 34C100 30.6863 102.686 28 106 28L144 28C147.314 28 150 30.6863 150 34V37C150 40.3137 147.314 43 144 43H106C102.686 43 100 40.3137 100 37V34Z" fill="#200C0C"/>
<path d="M99 6C99 2.68629 101.686 9.92528e-08 105 2.21687e-07L140.363 1.52828e-06C143.677 1.65071e-06 146.363 2.68629 146.363 6V8.67978C146.363 11.9935 143.677 14.6798 140.363 14.6798H105C101.686 14.6798 99 11.9935 99 8.67978V6Z" fill="#200C0C"/>
<rect y="1" width="15" height="43" rx="6" fill="#200C0C"/>
<rect x="135" width="14.9568" height="42.1005" rx="6" fill="#200C0C"/>
<rect x="67" y="109" width="15" height="47" transform="rotate(-90 67 109)" fill="#200C0C"/>
</svg>
