<svg width="521" height="392" viewBox="0 0 521 392" fill="none" xmlns="http://www.w3.org/2000/svg">
<path d="M237.896 383.893L237.896 0.000213649H286.068L286.068 383.893H237.896Z" fill="white"/>
<path d="M118.576 383.893L118.576 103.755H169.713L169.713 383.893H118.576Z" fill="white"/>
<path d="M357.78 383.639C354.466 383.639 351.78 380.953 351.78 377.639L351.78 103.502H393.952C397.266 103.502 399.952 106.188 399.952 109.502L399.952 377.639C399.952 380.953 397.266 383.639 393.952 383.639H357.78Z" fill="white"/>
<path d="M351.78 109.506C351.78 106.193 354.466 103.506 357.78 103.506L514.752 103.506C518.066 103.506 520.752 106.193 520.752 109.506V149.383C520.752 152.697 518.066 155.383 514.752 155.383H357.78C354.466 155.383 351.78 152.697 351.78 149.383V109.506Z" fill="white"/>
<rect x="472.828" width="48.1719" height="155.632" fill="white"/>
<rect width="48.1719" height="155.632" fill="white"/>
<rect x="352.022" width="168.972" height="51.8774" fill="white"/>
<rect width="286.067" height="51.8774" fill="white"/>
<rect x="0.743652" y="103.755" width="168.972" height="51.8774" fill="white"/>
<g filter="url(#filter0_d)">
<rect x="237.896" y="383.893" width="51.8774" height="161.561" transform="rotate(-90 237.896 383.893)" fill="white"/>
</g>
<defs>
<filter id="filter0_d" x="233.896" y="332.015" width="169.561" height="59.8774" filterUnits="userSpaceOnUse" color-interpolation-filters="sRGB">
<feFlood flood-opacity="0" result="BackgroundImageFix"/>
<feColorMatrix in="SourceAlpha" type="matrix" values="0 0 0 0 0 0 0 0 0 0 0 0 0 0 0 0 0 0 127 0"/>
<feOffset dy="4"/>
<feGaussianBlur stdDeviation="2"/>
<feColorMatrix type="matrix" values="0 0 0 0 0 0 0 0 0 0 0 0 0 0 0 0 0 0 0.25 0"/>
<feBlend mode="normal" in2="BackgroundImageFix" result="effect1_dropShadow"/>
<feBlend mode="normal" in="SourceGraphic" in2="effect1_dropShadow" result="shape"/>
</filter>
</defs>
</svg>
