<svg width="97" height="72" viewBox="0 0 97 72" fill="none" xmlns="http://www.w3.org/2000/svg">
<path d="M44.2919 71.4739L44.2919 0.000127918H53.2607L53.2607 71.4739H44.2919Z" fill="black"/>
<path d="M22.0768 71.4739L22.0768 19.3174H31.5975L31.5975 71.4739H22.0768Z" fill="black"/>
<path d="M69.9794 71.427C67.5028 71.427 65.4951 69.4193 65.4951 66.9426L65.4951 19.2705H68.4638C71.7775 19.2705 74.4638 21.9568 74.4638 25.2705L74.4638 66.9426C74.4638 69.4193 72.4561 71.427 69.9794 71.427V71.427Z" fill="black"/>
<path d="M65.4951 24.1004C65.4951 21.4333 67.6572 19.2712 70.3243 19.2712L92.1253 19.2712C94.7924 19.2712 96.9545 21.4333 96.9545 24.1004V24.1004C96.9545 26.7675 94.7924 28.9297 92.1253 28.9297H70.3243C67.6572 28.9297 65.4951 26.7675 65.4951 24.1004V24.1004Z" fill="black"/>
<rect x="88.0313" y="3.05176e-05" width="8.96872" height="28.9758" fill="black"/>
<rect y="0.00012207" width="8.96872" height="28.9758" fill="black"/>
<rect x="65.5406" y="3.05176e-05" width="31.4595" height="9.65861" fill="black"/>
<rect y="0.00012207" width="53.2604" height="9.65861" fill="black"/>
<rect x="0.138123" y="19.3172" width="31.4595" height="9.65861" fill="black"/>
<rect x="44.2919" y="71.4739" width="9.65861" height="30.0797" transform="rotate(-90 44.2919 71.4739)" fill="black"/>
</svg>
